<!-- images/favicon.svg (versión compacta) -->
<svg xmlns="http://www.w3.org/2000/svg" viewBox="0 0 64 64">
  <defs>
    <linearGradient id="g" x1="0" y1="0" x2="1" y2="1">
      <stop offset="0" stop-color="#22d3ee"/>
      <stop offset="1" stop-color="#22c55e"/>
    </linearGradient>
  </defs>

  <!-- Escalamos TODO alrededor del centro para ocupar mejor el canvas -->
  <g transform="translate(32,32) scale(1.14) translate(-32,-32)">
    <!-- Escudo -->
    <path fill="url(#g)"
          d="M32 8l18 8v14c0 12-9 20-18 26C23 50 14 42 14 30V16l18-8z"/>
    <!-- (opcional) borde muy sutil; quítalo si prefieres aún más “peso visual” -->
    <path fill="none" stroke="rgba(0,0,0,.22)" stroke-width="0.8"
          d="M32 8l18 8v14c0 12-9 20-18 26C23 50 14 42 14 30V16l18-8z"/>

    <!-- Símbolo de código < / > más “bold” -->
    <polygon fill="#fff" points="26,22 18,32 26,42 29,39 23,32 29,25"/>
    <rect x="29.5" y="24" width="5" height="16" rx="1" ry="1" fill="#fff" transform="rotate(20 32 32)"/>
    <polygon fill="#fff" points="38,22 46,32 38,42 35,39 41,32 35,25"/>
  </g>
</svg>
